<?xml version="1.0" encoding="utf-8"?><svg xmlns="http://www.w3.org/2000/svg" xmlns:xlink="http://www.w3.org/1999/xlink" width="1536" height="722" preserveAspectRatio="xMidYMid" viewBox="0 0 1536 722" style="z-index:1;margin-right:-1.6px;display:block;background-color:rgb(241, 242, 243);animation-play-state:paused" ><g transform="translate(768,361) scale(1,1) translate(-768,-361)" style="transform:matrix(1, 0, 0, 1, 0, 0);animation-play-state:paused" ><linearGradient id="lg-0.5829990743004325" x1="0" x2="0.5" y1="0" y2="0" gradientUnits="objectBoundingBox" style="animation-play-state:paused" ><stop stop-color="#984008" offset="0" style="animation-play-state:paused" ></stop>

  
<stop stop-color="#f7943c" offset="1" style="animation-play-state:paused" ></stop></linearGradient>
<path d="M -731.506 722 Q -593.083 557.461 -620.526 392.635 T -298.451 95.5115 T 203.193 -140.287 T 835.302 -291.68 T 1536 -343.846 T 2236.7 -291.68 T 2868.81 -140.287 T 3370.45 95.5115 T 3692.53 392.635 T 3803.51 722" fill="url(#lg-0.5829990743004325)" opacity="0.9" style="opacity:0.9;animation-play-state:paused" ></path>
<path d="M -504.755 722 Q -424.112 559.939 -381.683 393.913 T -27.3093 105.399 T 515.622 -108.745 T 1181.63 -222.688 T 1890.37 -222.688 T 2556.38 -108.745 T 3099.31 105.399 T 3453.68 393.913 T 3576.76 722" fill="url(#lg-0.5829990743004325)" opacity="0.9" style="opacity:0.9;animation-play-state:paused" ></path>
<path d="M -278.005 722 Q -215.944 558.113 -139.922 395.695 T 253.305 119.067 T 841.81 -65.7706 T 1536 -130.677 T 2230.19 -65.7706 T 2818.7 119.067 T 3211.92 395.695 T 3350 722" fill="url(#lg-0.5829990743004325)" opacity="0.9" style="opacity:0.9;animation-play-state:paused" ></path>
<path d="M -51.2541 722 Q -6.89895 559.567 105.933 398.283 T 546.363 138.682 T 1182.8 -5.38603 T 1889.2 -5.38603 T 2525.64 138.682 T 2966.07 398.283 T 3123.25 722" fill="url(#lg-0.5829990743004325)" opacity="0.9" style="opacity:0.9;animation-play-state:paused" ></path>
<path d="M 175.496 722 Q 288.279 562.18 357.769 402.246 T 855.748 168.17 T 1536 82.4925 T 2216.25 168.17 T 2714.23 402.246 T 2896.5 722" fill="url(#lg-0.5829990743004325)" opacity="0.9" style="opacity:0.9;animation-play-state:paused" ></path>
<path d="M 402.247 722 Q 539.451 572.241 618.775 408.756 T 1185.65 215.16 T 1886.35 215.16 T 2453.23 408.756 T 2669.75 722" fill="url(#lg-0.5829990743004325)" opacity="0.9" style="opacity:0.9;animation-play-state:paused" ></path>
<path d="M 628.998 722 Q 752.731 577.049 894.652 420.533 T 1536 295.662 T 2177.35 420.533 T 2443 722" fill="url(#lg-0.5829990743004325)" opacity="0.9" style="opacity:0.9;animation-play-state:paused" ></path>
<path d="M 855.748 722 Q 988.621 576.458 1195.87 445.085 T 1876.13 445.085 T 2216.25 722" fill="url(#lg-0.5829990743004325)" opacity="0.9" style="opacity:0.9;animation-play-state:paused" ></path>
<path d="M 1082.5 722 Q 1233.47 601.583 1536 508.831 T 1989.5 722" fill="url(#lg-0.5829990743004325)" opacity="0.9" style="opacity:0.9;animation-play-state:paused" ></path>
<path d="M 1309.25 722 Q 1536 647.264 1762.75 722" fill="url(#lg-0.5829990743004325)" opacity="0.9" style="opacity:0.9;animation-play-state:paused" ></path></g></svg>